<svg id="Group_1158" data-name="Group 1158" xmlns="http://www.w3.org/2000/svg" xmlns:xlink="http://www.w3.org/1999/xlink" width="153.646" height="181.867" viewBox="0 0 153.646 181.867">
  <defs>
    <clipPath id="clip-path">
      <rect id="Rectangle_2179" data-name="Rectangle 2179" width="153.646" height="181.867" fill="#fff" stroke="rgba(0,0,0,0)" stroke-width="1"/>
    </clipPath>
  </defs>
  <g id="Group_1157" data-name="Group 1157" clip-path="url(#clip-path)">
    <path id="Path_1743" data-name="Path 1743" d="M1376.9,39.605c19.264,0,28.434,7.8,30.61,18.4,1.338,6.488,6.686,11.358,13.309,11.358h64.923c9.783-51.773-23.236-90.905-104.764-90.905-101.1,0-133.711,65.632-148.791,130.446-11.722,50.578-12.108,111.577,45.542,131.739v0h0c6.238,4.354,14.105,7.21,26.827,7.838,21.053,1.038,59.539.308,74.313-14.734l29.653-32.5-10.429,42.183h20.025a35.3,35.3,0,0,0,34.392-27.359L1481.66,89.745h-96.779a38.53,38.53,0,0,0-37.473,29.57L1341.026,146h38.919c-15.774,15.5-32.705,31.238-45.389,40.708-36.151-1.149-32.1-33.621-23.695-69.652C1321.868,71.808,1336.945,39.605,1376.9,39.605ZM1257.523,220.265h0l14.2,11.218ZM1412.734,184.2c-.248.3-.523.626-.782.938.259-.312.534-.633.782-.938Z" transform="translate(-1332.776 -76.023)" fill="#fff" stroke="rgba(0,0,0,0)" stroke-width="1"/>
  </g>
</svg>
